<!-- icon666.com - MILLIONS vector ICONS FREE --><svg viewBox="-39 0 512 512" xmlns="http://www.w3.org/2000/svg"><path d="m330.640625 307.707031c7.335937-9.683593 13.464844-20.328125 18.167969-31.707031h25.191406c32.714844 0 59.332031-26.617188 59.332031-59.332031 0-26-16.8125-48.128907-40.132812-56.128907-8.488281-89.933593-84.414063-160.539062-176.53125-160.539062-92.117188 0-168.046875 70.605469-176.535157 160.539062-23.316406 8-40.132812 30.128907-40.132812 56.128907 0 32.714843 26.617188 59.332031 59.335938 59.332031h25.1875c4.703124 11.378906 10.832031 22.023438 18.167968 31.707031-62.429687 38.636719-102.691406 107.441407-102.691406 184.292969 0 11.046875 8.953125 20 20 20h393.332031c11.046875 0 20-8.953125 20-20 .003907-76.800781-40.226562-145.636719-102.691406-184.292969zm43.359375-71.707031h-15.140625c1.265625-12.566406.90625-25.558594-1.34375-38.667969h16.484375c10.660156 0 19.332031 8.675781 19.332031 19.335938.003907 10.660156-8.671875 19.332031-19.332031 19.332031zm-157.332031-196c68.933593 0 126.15625 51.054688 135.871093 117.332031h-8.238281c-52.914062-104.691406-202.292969-104.808593-255.269531 0h-8.234375c9.710937-66.277343 66.9375-117.332031 135.871094-117.332031zm-157.332031 196c-10.660157 0-19.335938-8.671875-19.335938-19.332031 0-10.660157 8.675781-19.335938 19.335938-19.335938h16.480468c-2.128906 12.425781-2.675781 25.410157-1.34375 38.667969zm157.332031 0h-101.902344c-8.714844-61.886719 39.414063-117.332031 101.902344-117.332031 69.382812 0 118.011719 67.359375 98.839843 131.605469-24.816406 85.363281-138.96875 101.167968-186.15625 25.726562h87.316407c11.046875 0 20-8.953125 20-20s-8.953125-20-20-20zm-175.546875 236c6.546875-57.972656 41.238281-108.035156 91.09375-135.199219 50.289062 36.960938 118.648437 36.9375 168.90625 0 49.820312 27.144531 84.539062 77.1875 91.089844 135.199219zm0 0" fill="#000000" style="fill: rgb(255, 255, 255);"></path></svg>